
<?xml version="1.0" encoding="UTF-8" standalone="no"?>
<!DOCTYPE svg PUBLIC "-//W3C//DTD SVG 1.1//EN"
 "http://www.w3.org/Graphics/SVG/1.1/DTD/svg11.dtd">
<!-- Generated by graphviz version 2.30.1 (20140404.2056)
 -->
<!-- Title: world Pages: 1 -->
<svg width="334pt" height="336pt"
 viewBox="0.00 0.00 334.00 336.00" xmlns="http://www.w3.org/2000/svg" xmlns:xlink="http://www.w3.org/1999/xlink">
<g id="graph0" class="graph" transform="scale(1 1) rotate(0) translate(4 332)">
<title>world</title>
<polygon fill="white" stroke="white" points="-4,5 -4,-332 331,-332 331,5 -4,5"/>
<!-- PHP1 -->
<g id="node1" class="node"><title>PHP1</title>
<ellipse fill="none" stroke="black" cx="32" cy="-164" rx="32.2457" ry="18"/>
<text text-anchor="middle" x="32" y="-160.3" font-family="Courier,monospace" font-size="14.00">PHP1</text>
</g>
<!-- DB -->
<g id="node3" class="node"><title>DB</title>
<ellipse fill="none" stroke="black" cx="163" cy="-164" rx="27" ry="18"/>
<text text-anchor="middle" x="163" y="-160.3" font-family="Courier,monospace" font-size="14.00">DB</text>
</g>
<!-- PHP1&#45;&gt;DB -->
<g id="edge8" class="edge"><title>PHP1&#45;&gt;DB</title>
<path fill="none" stroke="blue" d="M74.5047,-164C91.5509,-164 108.597,-164 125.643,-164"/>
<polygon fill="blue" stroke="blue" points="74.4942,-160.5 64.4941,-164 74.4941,-167.5 74.4942,-160.5"/>
<polygon fill="blue" stroke="blue" points="125.68,-167.5 135.68,-164 125.68,-160.5 125.68,-167.5"/>
</g>
<!-- CDN1 -->
<g id="node6" class="node"><title>CDN1</title>
<ellipse fill="none" stroke="black" cx="94" cy="-92" rx="32.2457" ry="18"/>
<text text-anchor="middle" x="94" y="-88.3" font-family="Courier,monospace" font-size="14.00">CDN1</text>
</g>
<!-- PHP1&#45;&gt;CDN1 -->
<g id="edge13" class="edge"><title>PHP1&#45;&gt;CDN1</title>
<path fill="none" stroke="red" d="M45.7598,-147.465C56.0343,-135.865 70.0135,-120.082 80.2787,-108.492"/>
</g>
<!-- CDN2 -->
<g id="node7" class="node"><title>CDN2</title>
<ellipse fill="none" stroke="black" cx="231" cy="-92" rx="32.2457" ry="18"/>
<text text-anchor="middle" x="231" y="-88.3" font-family="Courier,monospace" font-size="14.00">CDN2</text>
</g>
<!-- PHP1&#45;&gt;CDN2 -->
<g id="edge14" class="edge"><title>PHP1&#45;&gt;CDN2</title>
<path fill="none" stroke="red" d="M58.838,-153.559C96.9246,-140.162 166.243,-115.779 204.27,-102.402"/>
</g>
<!-- PHP2 -->
<g id="node2" class="node"><title>PHP2</title>
<ellipse fill="none" stroke="black" cx="294" cy="-164" rx="32.2457" ry="18"/>
<text text-anchor="middle" x="294" y="-160.3" font-family="Courier,monospace" font-size="14.00">PHP2</text>
</g>
<!-- PHP2&#45;&gt;CDN1 -->
<g id="edge15" class="edge"><title>PHP2&#45;&gt;CDN1</title>
<path fill="none" stroke="red" d="M267.442,-153.705C229.189,-140.316 158.982,-115.744 120.668,-102.334"/>
</g>
<!-- PHP2&#45;&gt;CDN2 -->
<g id="edge16" class="edge"><title>PHP2&#45;&gt;CDN2</title>
<path fill="none" stroke="red" d="M280.018,-147.465C269.578,-135.865 255.373,-120.082 244.943,-108.492"/>
</g>
<!-- DB&#45;&gt;PHP2 -->
<g id="edge9" class="edge"><title>DB&#45;&gt;PHP2</title>
<path fill="none" stroke="blue" d="M200.164,-164C217.266,-164 234.367,-164 251.469,-164"/>
<polygon fill="blue" stroke="blue" points="200.121,-160.5 190.121,-164 200.121,-167.5 200.121,-160.5"/>
<polygon fill="blue" stroke="blue" points="251.538,-167.5 261.538,-164 251.538,-160.5 251.538,-167.5"/>
</g>
<!-- F1 -->
<g id="node4" class="node"><title>F1</title>
<ellipse fill="none" stroke="black" cx="100" cy="-236" rx="27" ry="18"/>
<text text-anchor="middle" x="100" y="-232.3" font-family="Courier,monospace" font-size="14.00">F1</text>
</g>
<!-- F1&#45;&gt;PHP1 -->
<g id="edge3" class="edge"><title>F1&#45;&gt;PHP1</title>
<path fill="none" stroke="red" d="M85.9104,-220.496C74.5511,-208.803 58.6138,-192.397 47.015,-180.457"/>
</g>
<!-- F1&#45;&gt;PHP2 -->
<g id="edge4" class="edge"><title>F1&#45;&gt;PHP2</title>
<path fill="none" stroke="red" d="M123.401,-226.556C159.782,-213.429 229.671,-188.212 267.73,-174.479"/>
</g>
<!-- F2 -->
<g id="node5" class="node"><title>F2</title>
<ellipse fill="none" stroke="black" cx="226" cy="-236" rx="27" ry="18"/>
<text text-anchor="middle" x="226" y="-232.3" font-family="Courier,monospace" font-size="14.00">F2</text>
</g>
<!-- F1&#45;&gt;F2 -->
<g id="edge7" class="edge"><title>F1&#45;&gt;F2</title>
<path fill="none" stroke="blue" d="M137.178,-236C154.39,-236 171.603,-236 188.815,-236"/>
<polygon fill="blue" stroke="blue" points="137.07,-232.5 127.07,-236 137.07,-239.5 137.07,-232.5"/>
<polygon fill="blue" stroke="blue" points="188.949,-239.5 198.949,-236 188.949,-232.5 188.949,-239.5"/>
</g>
<!-- F2&#45;&gt;PHP1 -->
<g id="edge5" class="edge"><title>F2&#45;&gt;PHP1</title>
<path fill="none" stroke="red" d="M202.599,-226.556C166.218,-213.429 96.3294,-188.212 58.2701,-174.479"/>
</g>
<!-- F2&#45;&gt;PHP2 -->
<g id="edge6" class="edge"><title>F2&#45;&gt;PHP2</title>
<path fill="none" stroke="red" d="M240.09,-220.496C251.449,-208.803 267.386,-192.397 278.985,-180.457"/>
</g>
<!-- CDN1&#45;&gt;CDN2 -->
<g id="edge10" class="edge"><title>CDN1&#45;&gt;CDN2</title>
<path fill="none" stroke="blue" d="M136.549,-92C153.871,-92 171.193,-92 188.515,-92"/>
<polygon fill="blue" stroke="blue" points="136.377,-88.5001 126.377,-92 136.377,-95.5001 136.377,-88.5001"/>
<polygon fill="blue" stroke="blue" points="188.714,-95.5001 198.714,-92 188.714,-88.5001 188.714,-95.5001"/>
</g>
<!-- kys.io -->
<g id="node9" class="node"><title>kys.io</title>
<polygon fill="none" stroke="black" points="129,-1 129,-37 195,-37 195,-1 129,-1"/>
<text text-anchor="middle" x="162" y="-15.3" font-family="Courier,monospace" font-size="14.00">kys.io</text>
</g>
<!-- CDN1&#45;&gt;kys.io -->
<g id="edge11" class="edge"><title>CDN1&#45;&gt;kys.io</title>
<path fill="none" stroke="red" d="M108.755,-75.5941C119.614,-64.256 134.378,-48.8404 145.605,-37.1178"/>
</g>
<!-- CDN2&#45;&gt;kys.io -->
<g id="edge12" class="edge"><title>CDN2&#45;&gt;kys.io</title>
<path fill="none" stroke="red" d="M216.367,-75.9427C205.29,-64.5451 190.069,-48.8827 178.549,-37.0288"/>
</g>
<!-- leakforums.org -->
<g id="node8" class="node"><title>leakforums.org</title>
<polygon fill="none" stroke="black" points="97,-291 97,-327 229,-327 229,-291 97,-291"/>
<text text-anchor="middle" x="163" y="-305.3" font-family="Courier,monospace" font-size="14.00">leakforums.org</text>
</g>
<!-- leakforums.org&#45;&gt;F1 -->
<g id="edge1" class="edge"><title>leakforums.org&#45;&gt;F1</title>
<path fill="none" stroke="red" d="M147.749,-290.813C137.262,-278.993 123.464,-263.444 113.399,-252.101"/>
</g>
<!-- leakforums.org&#45;&gt;F2 -->
<g id="edge2" class="edge"><title>leakforums.org&#45;&gt;F2</title>
<path fill="none" stroke="red" d="M178.251,-290.813C188.738,-278.993 202.536,-263.444 212.601,-252.101"/>
</g>
</g>
</svg>
